# xmcd CD database file
#
# Track frame offsets:
#	150
#	23357
#	45825
#	63477
#	83465
#	100760
#	117047
#	133727
#	158587
#	178510
#	198862
#	222545
#	244930
#	274055
#
# Disc length: 4089 seconds
#
# Revision: 0
# Processed by: cddbd v1.5.2PL0 Copyright (c) Steve Scherf et al.
# Submitted via: CDex 1.51
#
DISCID=ad0ff70e
DTITLE=Kassu Halonen Band - Halosta!
DYEAR=1981
DGENRE=Blues
TTITLE0=What's It Gonna Be
TTITLE1=There's Always A Reason
TTITLE2=Boogie Man
TTITLE3=Statesboro Blues
TTITLE4=Trouble No More
TTITLE5=Morning Blue
TTITLE6=Top Plot
TTITLE7=Last Nite
TTITLE8=Pretty Woman
TTITLE9=Rock Me Baby
TTITLE10=It's Not My Cross To Bear
TTITLE11=Night Gambler
TTITLE12=I Got The Blues
TTITLE13=Long Drink Blues
EXTD=YEAR: 1981
EXTT0=
EXTT1=
EXTT2=
EXTT3=
EXTT4=
EXTT5=
EXTT6=
EXTT7=
EXTT8=
EXTT9=
EXTT10=
EXTT11=
EXTT12=
EXTT13=
PLAYORDER=
